<svg width="24" height="24" viewBox="0 0 24 24" fill="none" xmlns="http://www.w3.org/2000/svg">
<g clip-path="url(#clip0_6004_56)">
<path d="M15.8572 8.57143C17.7895 8.57143 19.6427 9.33903 21.009 10.7054C22.3752 12.0717 23.1429 13.9249 23.1429 15.8571C23.1475 17.2913 22.7236 18.6941 21.9258 19.8857L23.1429 23.1429L19.0457 22.4057C18.0604 22.8862 16.9794 23.1382 15.8831 23.1429C14.7869 23.1475 13.7037 22.9046 12.7144 22.4325C11.725 21.9603 10.8549 21.2709 10.169 20.4158C9.4831 19.5607 8.99899 18.5618 8.75278 17.4934C8.50658 16.4252 8.50459 15.3152 8.74701 14.2461C8.98942 13.177 9.46997 12.1763 10.1528 11.3187C10.8357 10.4612 11.7033 9.76874 12.691 9.29306C13.6787 8.81738 14.7609 8.57071 15.8572 8.57143Z" stroke="#47DF5E" stroke-linecap="round" stroke-linejoin="round"/>
<path d="M16.9029 4.30293C15.7485 2.8339 14.1647 1.76141 12.3721 1.23477C10.5795 0.708133 8.66726 0.753558 6.90168 1.36472C5.1361 1.97589 3.60504 3.12237 2.52163 4.64455C1.43823 6.16672 0.856426 7.98885 0.857218 9.85721C0.851905 11.6332 1.37722 13.3703 2.36578 14.8458L0.857218 18.8571L4.4915 18.2057" stroke="#47DF5E" stroke-linecap="round" stroke-linejoin="round"/>
</g>
<defs>
<clipPath id="clip0_6004_56">
<rect width="24" height="24" fill="white"/>
</clipPath>
</defs>
</svg>
