<svg width="10" height="10" viewBox="0 0 10 10" fill="none" xmlns="http://www.w3.org/2000/svg">
<g clip-path="url(#clip0_6004_150)">
<path d="M2.8454 6.31965L4.25135 5.07742V8.80414" stroke="#47DF5E" stroke-linecap="round" stroke-linejoin="round"/>
<path d="M7.15463 7.56185L5.74872 8.80414V5.07742" stroke="#47DF5E" stroke-linecap="round" stroke-linejoin="round"/>
<path d="M2.79977 7.74443C2.19632 7.78493 1.6015 7.58407 1.14615 7.18607C0.690797 6.788 0.412222 6.22536 0.371704 5.62191C0.331187 5.01846 0.532048 4.42364 0.930103 3.96828C1.1272 3.74282 1.36677 3.55838 1.63515 3.4255C1.90352 3.29262 2.19544 3.21391 2.49423 3.19384C2.52525 3.19452 2.5558 3.18631 2.5823 3.17018C2.60879 3.15406 2.63012 3.13068 2.64375 3.10283C2.84987 2.50543 3.25457 1.99674 3.79035 1.66161C4.32614 1.32647 4.96062 1.18514 5.58799 1.26118C6.21536 1.33723 6.7977 1.62605 7.23787 2.07949C7.67809 2.53293 7.94952 3.12357 8.00695 3.75291C8.01173 3.78605 8.02595 3.81713 8.0478 3.84247C8.06973 3.8678 8.09837 3.88636 8.13045 3.89593C8.59502 4.00538 9.0033 4.28135 9.27802 4.67161C9.55273 5.06187 9.6748 5.53932 9.62116 6.01354C9.56745 6.48777 9.34173 6.92585 8.9868 7.24486C8.8373 7.37914 8.66923 7.48843 8.48916 7.57021" stroke="#47DF5E" stroke-linecap="round" stroke-linejoin="round"/>
</g>
<defs>
<clipPath id="clip0_6004_150">
<rect width="10" height="10" fill="white"/>
</clipPath>
</defs>
</svg>
