<svg width="24" height="24" viewBox="0 0 24 24" fill="none" xmlns="http://www.w3.org/2000/svg">
<g clip-path="url(#clip0_6004_60)">
<path d="M23.1429 13.7143H17.1429C16.6882 13.7143 16.2522 13.8949 15.9307 14.2164C15.6092 14.5379 15.4286 14.9739 15.4286 15.4286C15.4286 16.3379 15.0674 17.2099 14.4244 17.8529C13.7814 18.4959 12.9093 18.8571 12 18.8571C11.0907 18.8571 10.2187 18.4959 9.57568 17.8529C8.93268 17.2099 8.57146 16.3379 8.57146 15.4286C8.57146 14.9739 8.39085 14.5379 8.06937 14.2164C7.74787 13.8949 7.31184 13.7143 6.85718 13.7143H0.857178V21.4286C0.857178 21.8832 1.03779 22.3193 1.35928 22.6407C1.68077 22.9622 2.1168 23.1429 2.57146 23.1429H21.4286C21.8832 23.1429 22.3193 22.9622 22.6408 22.6407C22.9622 22.3193 23.1429 21.8832 23.1429 21.4286V13.7143Z" stroke="#47DF5E" stroke-linecap="round" stroke-linejoin="round"/>
<path d="M7.71436 6.85714L12.0001 11.1429L16.2858 6.85714" stroke="#47DF5E" stroke-linecap="round" stroke-linejoin="round"/>
<path d="M12 0.857143V11.1429" stroke="#47DF5E" stroke-linecap="round" stroke-linejoin="round"/>
</g>
<defs>
<clipPath id="clip0_6004_60">
<rect width="24" height="24" fill="white"/>
</clipPath>
</defs>
</svg>
