<svg width="24" height="24" viewBox="0 0 24 24" fill="none" xmlns="http://www.w3.org/2000/svg">
<path d="M18.6943 8.784C20.229 8.784 21.4731 7.53986 21.4731 6.00514C21.4731 4.47042 20.229 3.22629 18.6943 3.22629C17.1595 3.22629 15.9154 4.47042 15.9154 6.00514C15.9154 7.53986 17.1595 8.784 18.6943 8.784Z" stroke="#47DF5E" stroke-linecap="round" stroke-linejoin="round"/>
<path d="M14.5254 14.3443V12.9544C14.5254 10.6516 16.3922 8.78487 18.695 8.78487C20.9978 8.78487 22.8645 10.6516 22.8645 12.9544V14.3443" stroke="#47DF5E" stroke-linecap="round" stroke-linejoin="round"/>
<path d="M11.3148 14.3463H22.8649" stroke="#47DF5E" stroke-linecap="round" stroke-linejoin="round"/>
<path d="M6.17803 9.62071C7.79918 9.62071 9.11338 8.3065 9.11338 6.68535C9.11338 5.06421 7.79918 3.75 6.17803 3.75C4.55688 3.75 3.24268 5.06421 3.24268 6.68535C3.24268 8.3065 4.55688 9.62071 6.17803 9.62071Z" stroke="#47DF5E" stroke-linecap="round" stroke-linejoin="round"/>
<path d="M11.315 14.7575C11.315 13.3952 10.7738 12.0886 9.81043 11.1252C8.84709 10.1619 7.54051 9.62067 6.17813 9.62067C4.81574 9.62067 3.50916 10.1619 2.54582 11.1252C1.58246 12.0886 1.04126 13.3952 1.04126 14.7575V16.9591H3.24278L3.97661 22.8298H8.37963L9.11347 16.9591H11.315V14.7575Z" stroke="#47DF5E" stroke-linecap="round" stroke-linejoin="round"/>
</svg>
